<?xml version="1.0" encoding="UTF-8"?>
<svg id="Layer_1" data-name="Layer 1" xmlns="http://www.w3.org/2000/svg" version="1.1" viewBox="0 0 149.12 205.56">
  <defs>
    <style>
      .cls-1 {
        fill: #000;
      }

      .cls-1, .cls-2 {
        stroke-width: 0px;
      }

      .cls-2 {
        fill: #fff;
      }
    </style>
  </defs>
  <path class="cls-2" d="M0,0h149.12v131c0,41.15-33.41,74.56-74.56,74.56h0C33.41,205.56,0,172.15,0,131V0H0Z"/>
  <path class="cls-1" d="M35.69,103.76v34.2c0,5.1,3.43,9.41,8.1,10.76l1.88,10.9c1.57,9.09,9.41,15.7,18.64,15.7h20.48c9.23,0,17.07-6.6,18.64-15.7l1.88-10.9c4.67-1.35,8.1-5.66,8.1-10.76v-34.2H35.69ZM98.47,150.2l-1.56,9.05c-1.06,6.15-6.37,10.62-12.61,10.62h-19.47c-6.24,0-11.55-4.47-12.61-10.62l-1.56-9.05h47.82ZM106.88,137.69c0,1.53-.62,2.92-1.63,3.93-1.01,1.01-2.4,1.63-3.93,1.63h-53.52c-1.53,0-2.92-.62-3.93-1.63-1.01-1.01-1.63-2.4-1.63-3.93v-27.81h64.64v27.81Z"/>
  <g>
    <path class="cls-1" d="M77.22,21c0-3.2,2.66-5.84,5.84-5.84s5.82,2.63,5.82,5.82-2.66,5.82-5.84,5.82-5.82-2.61-5.82-5.81ZM96.1,15.44h4.17l-16.96,24.91h-4.19l16.97-24.91ZM85.62,21c0-1.44-1.14-2.59-2.58-2.59s-2.61,1.16-2.61,2.59,1.16,2.58,2.61,2.58,2.58-1.16,2.58-2.58ZM90.74,34.84c0-3.2,2.66-5.82,5.84-5.82s5.82,2.61,5.82,5.81-2.66,5.84-5.84,5.84-5.82-2.63-5.82-5.82ZM99.14,34.84c0-1.42-1.14-2.58-2.58-2.58s-2.61,1.16-2.61,2.58,1.16,2.59,2.61,2.59,2.58-1.16,2.58-2.59Z"/>
    <path class="cls-1" d="M59.63,40.82c-7.12,0-12.91-5.79-12.91-12.91s5.79-12.91,12.91-12.91,12.91,5.79,12.91,12.91-5.79,12.91-12.91,12.91ZM59.63,19.8c-4.47,0-8.11,3.64-8.11,8.11s3.64,8.11,8.11,8.11,8.11-3.64,8.11-8.11-3.64-8.11-8.11-8.11Z"/>
  </g>
</svg>