<?xml version="1.0" encoding="UTF-8"?>
<svg id="Layer_1" data-name="Layer 1" xmlns="http://www.w3.org/2000/svg" version="1.1" viewBox="0 0 149.12 205.56">
  <defs>
    <style>
      .cls-1, .cls-2 {
        stroke-width: 0px;
      }

      .cls-1, .cls-3 {
        fill: #000;
      }

      .cls-2 {
        fill: #fff;
      }

      .cls-3 {
        stroke: #000;
        stroke-miterlimit: 10;
        stroke-width: .5px;
      }
    </style>
  </defs>
  <path class="cls-2" d="M0,0h149.12v131c0,41.15-33.41,74.56-74.56,74.56h0C33.41,205.56,0,172.15,0,131V0H0Z"/>
  <g>
    <path class="cls-1" d="M73.02,103.76c.07-.44.12-.88.12-1.34,0-3.11-1.6-6.66-4.49-9.56-2.21-2.22-4.87-3.75-7.54-4.31-.7-.15-1.38-.22-2.04-.22-1.87,0-3.54.6-4.74,1.81-1.21,1.21-1.83,2.89-1.82,4.76,0,.65.07,1.32.21,2.02.49,2.39,1.77,4.77,3.62,6.84h-20.64v34.2c0,5.1,3.43,9.41,8.1,10.76l1.88,10.9c1.57,9.09,9.41,15.7,18.64,15.7h20.48c9.23,0,17.07-6.6,18.64-15.7l1.88-10.9c4.67-1.35,8.1-5.66,8.1-10.76v-34.2h-40.41ZM98.47,150.2l-1.56,9.05c-1.06,6.15-6.37,10.62-12.61,10.62h-19.47c-6.24,0-11.55-4.47-12.61-10.62l-1.56-9.05h47.82ZM58.25,103.22c-1.99-2-3.34-4.38-3.81-6.65-.12-.58-.18-1.14-.18-1.66,0-1.36.39-2.47,1.1-3.3l.2-.22c.07-.07.16-.12.23-.18,1.3.34,2.62,1.56,3.56,2.64.81.93,1.55,2.01,2.2,3.2,1.63,2.99,2.97,5.15,4.08,6.71h-6.81c-.2-.18-.39-.35-.58-.54ZM71.21,103.76h-3.95c-.64-1.2-1.37-2.86-2.18-5.2-2.12-6.12-5.72-7.74-8.03-8.11.59-.23,1.27-.35,2.02-.35.53,0,1.09.06,1.68.18,2.27.47,4.65,1.82,6.64,3.83,2.6,2.6,3.99,5.77,3.98,8.3,0,.48-.07.93-.16,1.35ZM106.88,137.69c0,1.53-.62,2.92-1.63,3.93-1.01,1.01-2.4,1.63-3.93,1.63h-53.52c-1.53,0-2.92-.62-3.93-1.63-1.01-1.01-1.63-2.4-1.63-3.93v-27.81h64.64v27.81Z"/>
    <path class="cls-1" d="M80.8,96.39c0,1.82.57,3.52,1.8,4.75h0c.1.1.2.19.3.28,1.21,1.05,2.78,1.53,4.47,1.53,3.11,0,6.66-1.6,9.56-4.49,2.22-2.21,3.75-4.87,4.31-7.54.15-.7.22-1.38.22-2.04,0-1.87-.6-3.54-1.81-4.74-1.21-1.21-2.89-1.83-4.76-1.82-.65,0-1.32.07-2.02.21-2.67.55-5.33,2.07-7.55,4.29-2.91,2.9-4.51,6.46-4.52,9.57ZM82.56,96.38c0-2.53,1.39-5.71,4.01-8.31,2-1.99,4.38-3.34,6.65-3.81.58-.12,1.14-.18,1.66-.18,1.36,0,2.47.39,3.3,1.1l.22.2c.07.07.12.16.18.23-.34,1.3-1.56,2.62-2.64,3.56-.93.81-2.01,1.55-3.2,2.2-4.13,2.25-6.69,3.95-8.24,5.25-.77.64-1.29,1.18-1.64,1.64-.2-.57-.3-1.2-.3-1.89ZM84.19,98.23c1.07-.84,3.13-1.97,7.04-3.33,6.12-2.12,7.74-5.72,8.11-8.03.23.59.35,1.27.35,2.02,0,.53-.06,1.09-.18,1.68-.47,2.27-1.82,4.65-3.83,6.64-2.6,2.6-5.77,3.99-8.3,3.98-1.45,0-2.66-.44-3.53-1.3-.22-.22-.41-.47-.58-.74.17-.24.44-.55.92-.92Z"/>
    <path class="cls-1" d="M82.25,82.45c1.75,0,3.18-1.42,3.18-3.18s-1.42-3.18-3.18-3.18-3.18,1.42-3.18,3.18,1.42,3.18,3.18,3.18Z"/>
    <circle class="cls-1" cx="74.77" cy="90.39" r="2.25"/>
    <path class="cls-1" d="M71.85,84.82c1.28,0,2.32-1.04,2.32-2.32s-1.04-2.32-2.32-2.32-2.32,1.04-2.32,2.32,1.04,2.32,2.32,2.32Z"/>
  </g>
  <g>
    <path class="cls-1" d="M84.37,20.89c0-3.2,2.66-5.84,5.84-5.84s5.82,2.63,5.82,5.82-2.66,5.82-5.84,5.82-5.82-2.61-5.82-5.81ZM103.25,15.33h4.17l-16.96,24.91h-4.19l16.97-24.91ZM92.78,20.89c0-1.44-1.14-2.59-2.58-2.59s-2.61,1.16-2.61,2.59,1.16,2.58,2.61,2.58,2.58-1.16,2.58-2.58ZM97.89,34.73c0-3.2,2.66-5.82,5.84-5.82s5.82,2.61,5.82,5.81-2.66,5.84-5.84,5.84-5.82-2.63-5.82-5.82ZM106.29,34.73c0-1.42-1.14-2.58-2.58-2.58s-2.61,1.16-2.61,2.58,1.16,2.59,2.61,2.59,2.58-1.16,2.58-2.59Z"/>
    <g>
      <polygon class="cls-3" points="46.11 14.9 39.57 16.96 39.57 21.84 42.95 20.83 42.95 40.92 47.63 40.92 47.63 14.9 46.11 14.9"/>
      <path class="cls-1" d="M65.55,40.82c-7.12,0-12.91-5.79-12.91-12.91s5.79-12.91,12.91-12.91,12.91,5.79,12.91,12.91-5.79,12.91-12.91,12.91ZM65.55,19.8c-4.47,0-8.11,3.64-8.11,8.11s3.64,8.11,8.11,8.11,8.11-3.64,8.11-8.11-3.64-8.11-8.11-8.11Z"/>
    </g>
  </g>
</svg>