<?xml version="1.0" encoding="UTF-8"?>
<svg id="Layer_1" data-name="Layer 1" xmlns="http://www.w3.org/2000/svg" version="1.1" viewBox="0 0 149.12 205.56">
  <defs>
    <style>
      .cls-1, .cls-2 {
        stroke-width: 0px;
      }

      .cls-1, .cls-3 {
        fill: #000;
      }

      .cls-2 {
        fill: #fff;
      }

      .cls-3 {
        stroke: #000;
        stroke-miterlimit: 10;
        stroke-width: .5px;
      }
    </style>
  </defs>
  <path class="cls-2" d="M0,0h149.12v131c0,41.15-33.41,74.56-74.56,74.56h0C33.41,205.56,0,172.15,0,131V0H0Z"/>
  <g>
    <path class="cls-1" d="M73.02,103.76c.07-.44.12-.88.12-1.34,0-3.11-1.6-6.66-4.49-9.56-2.21-2.22-4.87-3.75-7.54-4.31-.7-.15-1.38-.22-2.04-.22-1.87,0-3.54.6-4.74,1.81-1.21,1.21-1.83,2.89-1.82,4.76,0,.65.07,1.32.21,2.02.49,2.39,1.77,4.77,3.62,6.84h-20.64v34.2c0,5.1,3.43,9.41,8.1,10.76l1.88,10.9c1.57,9.09,9.41,15.7,18.64,15.7h20.48c9.23,0,17.07-6.6,18.64-15.7l1.88-10.9c4.67-1.35,8.1-5.66,8.1-10.76v-34.2h-40.41ZM98.47,150.2l-1.56,9.05c-1.06,6.15-6.37,10.62-12.61,10.62h-19.47c-6.24,0-11.55-4.47-12.61-10.62l-1.56-9.05h47.82ZM58.25,103.22c-1.99-2-3.34-4.38-3.81-6.65-.12-.58-.18-1.14-.18-1.66,0-1.36.39-2.47,1.1-3.3l.2-.22c.07-.07.16-.12.23-.18,1.3.34,2.62,1.56,3.56,2.64.81.93,1.55,2.01,2.2,3.2,1.63,2.99,2.97,5.15,4.08,6.71h-6.81c-.2-.18-.39-.35-.58-.54ZM71.2,103.76h-3.95c-.64-1.2-1.37-2.86-2.18-5.2-2.12-6.12-5.72-7.74-8.03-8.11.59-.23,1.27-.35,2.02-.35.53,0,1.09.06,1.68.18,2.27.47,4.65,1.82,6.64,3.83,2.6,2.6,3.99,5.77,3.98,8.3,0,.48-.07.93-.16,1.35ZM106.88,137.69c0,1.53-.62,2.92-1.63,3.93-1.01,1.01-2.4,1.63-3.93,1.63h-53.52c-1.53,0-2.92-.62-3.93-1.63-1.01-1.01-1.63-2.4-1.63-3.93v-27.81h64.64v27.81Z"/>
    <path class="cls-1" d="M80.8,96.39c0,1.82.57,3.52,1.8,4.75h0c.1.1.2.19.3.28,1.2,1.05,2.78,1.53,4.46,1.53,3.11,0,6.66-1.6,9.56-4.49,2.22-2.21,3.75-4.87,4.31-7.54.15-.7.22-1.38.22-2.04,0-1.87-.6-3.54-1.81-4.74-1.21-1.21-2.89-1.83-4.76-1.82-.65,0-1.32.07-2.02.21-2.67.55-5.33,2.07-7.55,4.29-2.91,2.9-4.51,6.46-4.52,9.57ZM82.56,96.38c0-2.53,1.39-5.71,4.01-8.31,2-1.99,4.38-3.34,6.65-3.81.58-.12,1.14-.18,1.66-.18,1.36,0,2.47.39,3.3,1.1l.22.2c.07.07.12.16.18.23-.34,1.3-1.56,2.62-2.64,3.56-.93.81-2.01,1.55-3.2,2.2-4.13,2.25-6.69,3.95-8.24,5.25-.77.64-1.29,1.18-1.64,1.64-.2-.57-.3-1.2-.3-1.89ZM84.19,98.23c1.07-.84,3.13-1.97,7.04-3.33,6.12-2.12,7.74-5.72,8.11-8.03.23.59.35,1.27.35,2.02,0,.53-.06,1.09-.18,1.68-.47,2.27-1.83,4.65-3.83,6.64-2.6,2.6-5.77,3.99-8.3,3.98-1.45,0-2.66-.44-3.53-1.3-.22-.22-.41-.47-.58-.74.17-.24.44-.55.92-.92Z"/>
    <path class="cls-1" d="M55.89,84.73h0s0,0,0,0h0c.12.06.25.12.38.17.71.28,1.46.42,2.22.42,1.88,0,3.82-.8,5.57-2.16,1.75-1.37,3.33-3.31,4.47-5.68,1.1-2.27,1.68-4.67,1.68-6.93,0-.54-.03-1.08-.1-1.6-.18-1.37-.59-2.58-1.22-3.58-.63-1-1.48-1.79-2.52-2.29-.82-.4-1.71-.59-2.62-.59-1.41,0-2.87.45-4.31,1.31-2.33,1.4-4.34,3.72-5.71,6.54-1.13,2.33-1.67,4.73-1.67,6.93,0,1.66.31,3.21.95,4.51.63,1.3,1.6,2.36,2.88,2.97ZM61.97,75.99c4.13-3.28,5.14-6.5,5.13-8.82,0-.52-.05-1-.13-1.42.15.18.29.37.42.58.47.76.8,1.72.95,2.85.06.44.09.9.09,1.37,0,1.96-.51,4.11-1.51,6.16-1.02,2.11-2.42,3.84-3.92,5.02-1.5,1.19-3.1,1.82-4.51,1.82-.66,0-1.28-.13-1.85-.41-.29-.14-.54-.32-.79-.52.26-.93,1.45-2.94,6.1-6.63ZM65.87,65.09c0,1.28-.67,2.79-1.34,3.95-.61,1.07-1.38,2.13-2.3,3.13-4.72,5.21-6.52,8.11-7.04,9.75-.23-.3-.45-.61-.63-.98-.49-1.01-.75-2.27-.75-3.68,0-1.91.49-4.07,1.51-6.18,1.23-2.54,3.03-4.6,5.02-5.79,1.2-.72,2.36-1.06,3.4-1.06.56,0,1.09.1,1.58.29.09.04.18.08.27.12.08.04.16.09.24.14,0,.1.02.19.02.29Z"/>
    <circle class="cls-1" cx="82.25" cy="79.27" r="3.18"/>
    <circle class="cls-1" cx="74.77" cy="90.39" r="2.25"/>
    <path class="cls-1" d="M69.53,82.5c0,1.28,1.04,2.32,2.32,2.32s2.32-1.04,2.32-2.32-1.04-2.32-2.32-2.32-2.32,1.04-2.32,2.32Z"/>
  </g>
  <g>
    <path class="cls-3" d="M73.82,31.65c0,5.33-4.12,9.01-9.18,9.01-3.68,0-7.21-2.08-8.59-5.28l3.88-1.23c.84,1.55,2.83,2.59,4.53,2.59,2.52,0,5.26-1.75,5.26-5.09,0-2.94-2.1-4.86-5.16-4.86-2.24,0-4.53,1.13-5.48,2.94l-2.21-1.32,1.85-13.01h12.91v3.91h-9.94l-.79,5.16c1.16-1.07,2.59-1.48,4.21-1.48,5.3,0,8.7,3.7,8.7,8.67Z"/>
    <path class="cls-1" d="M80.49,21.02c0-3.2,2.66-5.84,5.84-5.84s5.82,2.63,5.82,5.82-2.66,5.82-5.84,5.82-5.82-2.61-5.82-5.81ZM99.36,15.46h4.17l-16.96,24.91h-4.19l16.97-24.91ZM88.89,21.02c0-1.44-1.14-2.59-2.58-2.59s-2.61,1.16-2.61,2.59,1.16,2.58,2.61,2.58,2.58-1.16,2.58-2.58ZM94,34.85c0-3.2,2.66-5.82,5.84-5.82s5.82,2.61,5.82,5.81-2.66,5.84-5.84,5.84-5.82-2.63-5.82-5.82ZM102.41,34.85c0-1.42-1.14-2.58-2.58-2.58s-2.61,1.16-2.61,2.58,1.16,2.59,2.61,2.59,2.58-1.16,2.58-2.59Z"/>
    <polygon class="cls-3" points="48.99 14.78 42.45 16.84 42.45 21.71 45.84 20.7 45.84 40.8 50.52 40.8 50.52 14.78 48.99 14.78"/>
  </g>
</svg>