<?xml version="1.0" encoding="UTF-8"?>
<svg id="Layer_1" data-name="Layer 1" xmlns="http://www.w3.org/2000/svg" version="1.1" viewBox="0 0 149.12 205.56">
  <defs>
    <style>
      .cls-1 {
        fill: #000;
      }

      .cls-1, .cls-2 {
        stroke-width: 0px;
      }

      .cls-2 {
        fill: #fff;
      }
    </style>
  </defs>
  <path class="cls-2" d="M0,0h149.12v131c0,41.15-33.41,74.56-74.56,74.56h0C33.41,205.56,0,172.15,0,131V0H0Z"/>
  <g>
    <path class="cls-1" d="M80.34,96.39c0,1.82.57,3.52,1.8,4.75h0c.1.1.2.19.3.28,1.2,1.05,2.78,1.53,4.46,1.53,3.11,0,6.66-1.6,9.56-4.49,2.22-2.21,3.75-4.87,4.31-7.54.15-.7.22-1.38.22-2.04,0-1.87-.6-3.54-1.81-4.74-1.21-1.21-2.89-1.83-4.76-1.82-.65,0-1.32.07-2.02.21-2.67.55-5.33,2.07-7.55,4.29-2.91,2.9-4.51,6.46-4.52,9.57ZM82.1,96.38c0-2.53,1.39-5.71,4.01-8.31,2-1.99,4.38-3.34,6.65-3.81.58-.12,1.14-.18,1.66-.18,1.36,0,2.47.39,3.3,1.1l.22.2c.07.07.12.16.18.23-.34,1.3-1.56,2.62-2.64,3.56-.93.81-2.01,1.55-3.2,2.2-4.13,2.25-6.69,3.95-8.24,5.25-.77.64-1.29,1.18-1.64,1.64-.2-.57-.3-1.2-.3-1.89ZM83.73,98.23c1.07-.84,3.13-1.97,7.04-3.33,6.12-2.12,7.74-5.72,8.11-8.03.23.59.35,1.27.35,2.02,0,.53-.06,1.09-.18,1.68-.47,2.27-1.83,4.65-3.83,6.64-2.6,2.6-5.77,3.99-8.3,3.98-1.45,0-2.66-.44-3.53-1.3-.22-.22-.41-.47-.58-.74.17-.24.44-.55.92-.92Z"/>
    <path class="cls-1" d="M55.43,84.73h0s0,0,0,0h0c.12.06.25.12.38.17.71.28,1.46.42,2.22.42,1.88,0,3.82-.8,5.57-2.16,1.75-1.37,3.33-3.31,4.47-5.68,1.1-2.27,1.68-4.67,1.68-6.93,0-.54-.03-1.08-.1-1.6-.18-1.37-.59-2.58-1.22-3.58-.63-1-1.48-1.79-2.52-2.29-.82-.4-1.71-.59-2.62-.59-1.41,0-2.87.45-4.31,1.31-2.33,1.4-4.34,3.72-5.71,6.54-1.13,2.33-1.67,4.73-1.67,6.93,0,1.66.31,3.21.95,4.51.63,1.3,1.6,2.36,2.88,2.97ZM59.64,64.89l.25.41c1.2-.72,2.36-1.06,3.4-1.06.56,0,1.09.1,1.58.29.09.04.18.07.27.12.08.04.16.09.24.14,0,.1.02.19.02.29,0,1.28-.67,2.79-1.34,3.95-.61,1.07-1.38,2.13-2.3,3.13-4.72,5.21-6.52,8.11-7.04,9.75-.23-.3-.45-.61-.63-.98-.49-1.01-.75-2.27-.75-3.68,0-1.91.49-4.07,1.51-6.18,1.23-2.54,3.03-4.6,5.02-5.79l-.25-.41h0ZM61.51,75.99c4.13-3.28,5.14-6.5,5.13-8.82,0-.52-.05-1-.13-1.42.15.18.29.37.42.58.47.76.8,1.72.95,2.85.06.44.09.9.09,1.37,0,1.96-.51,4.11-1.51,6.16-1.02,2.11-2.42,3.84-3.92,5.02-1.5,1.19-3.1,1.82-4.51,1.82-.66,0-1.28-.13-1.85-.41-.29-.14-.54-.32-.79-.52.26-.93,1.45-2.94,6.1-6.63Z"/>
    <path class="cls-1" d="M38.31,97.94c1.5,1.02,3.08,1.57,4.6,1.57.78,0,1.55-.15,2.28-.45,1.06-.44,1.96-1.18,2.65-2.14.69-.97,1.17-2.15,1.43-3.51.15-.77.22-1.57.22-2.39,0-2.02-.44-4.16-1.29-6.23-1.04-2.51-2.56-4.6-4.3-6.08-1.74-1.47-3.7-2.35-5.64-2.35-.77,0-1.53.14-2.25.44h0c-.13.05-.25.11-.38.17-1.3.65-2.29,1.76-2.94,3.12-.65,1.37-.98,3-.98,4.75,0,1.97.42,4.11,1.29,6.21,1.2,2.9,3.07,5.33,5.31,6.86ZM37.59,78.21c.43.66.97,2.25.97,6.02,0,.86-.03,1.84-.09,2.95-.02.41-.04.81-.04,1.2,0,4.46,1.56,7.03,3.14,8.46.41.37.81.66,1.19.9-1.07-.03-2.26-.43-3.46-1.25-1.92-1.3-3.6-3.47-4.67-6.08-.79-1.91-1.16-3.83-1.16-5.56,0-1.57.3-2.98.86-4.08.56-1.1,1.35-1.9,2.35-2.31.29-.12.6-.19.91-.24ZM47.53,93.08c-.41,2.12-1.41,3.56-2.75,4.23-.09.04-.18.08-.27.12-.09.04-.18.05-.27.08-1.07-.81-1.83-2.44-2.29-3.8-.39-1.17-.67-2.45-.81-3.8-.75-7-1.71-10.27-2.59-11.76,1.36.08,2.86.75,4.25,1.95,1.49,1.28,2.84,3.13,3.76,5.37.77,1.86,1.16,3.78,1.16,5.55,0,.71-.06,1.4-.19,2.06l.47.09h0l-.47-.09Z"/>
    <path class="cls-1" d="M72.67,102.42c0-3.11-1.6-6.66-4.49-9.56-2.21-2.22-4.87-3.75-7.54-4.31-.7-.15-1.38-.22-2.04-.22-1.87,0-3.54.6-4.74,1.81-1.21,1.21-1.83,2.89-1.82,4.76,0,.65.07,1.32.21,2.02.49,2.39,1.77,4.77,3.62,6.84h-20.64v34.2c0,5.1,3.43,9.41,8.1,10.76l1.88,10.9c1.57,9.09,9.41,15.7,18.64,15.7h20.48c9.23,0,17.07-6.6,18.64-15.7l1.88-10.9c4.67-1.35,8.1-5.66,8.1-10.76v-34.2h-40.41c.07-.44.12-.88.12-1.34ZM98.01,150.2l-1.56,9.05c-1.06,6.15-6.37,10.62-12.61,10.62h-19.47c-6.24,0-11.55-4.47-12.61-10.62l-1.56-9.05h47.82ZM106.42,137.69c0,1.53-.62,2.92-1.63,3.93-1.01,1.01-2.4,1.63-3.93,1.63h-53.52c-1.53,0-2.92-.62-3.93-1.63-1.01-1.01-1.63-2.4-1.63-3.93v-27.81h64.64v27.81ZM57.79,103.22c-1.99-2-3.34-4.38-3.81-6.65-.12-.58-.18-1.14-.18-1.66,0-1.36.39-2.47,1.1-3.3l.2-.22c.07-.07.16-.12.23-.18,1.3.34,2.62,1.56,3.56,2.64.81.93,1.55,2.01,2.2,3.2,1.63,2.99,2.97,5.15,4.08,6.71h-6.81c-.2-.18-.39-.35-.58-.54ZM70.74,103.76h-3.95c-.64-1.2-1.37-2.86-2.18-5.2-2.12-6.12-5.72-7.74-8.03-8.11.59-.23,1.27-.35,2.02-.35.53,0,1.09.06,1.68.18,2.27.47,4.65,1.82,6.64,3.83,2.6,2.6,3.99,5.77,3.98,8.3,0,.48-.07.93-.16,1.35Z"/>
    <circle class="cls-1" cx="81.79" cy="79.27" r="3.18"/>
    <circle class="cls-1" cx="74.31" cy="90.39" r="2.25"/>
    <path class="cls-1" d="M69.07,82.5c0,1.28,1.04,2.32,2.32,2.32s2.32-1.04,2.32-2.32-1.04-2.32-2.32-2.32-2.32,1.04-2.32,2.32Z"/>
    <polygon class="cls-1" points="112.92 71.59 112.92 71.59 112.92 71.59 112.92 71.59"/>
    <path class="cls-1" d="M116.91,78h0c-.68-2.21-2.04-4.46-3.99-6.41-2.21-2.23-4.87-3.75-7.52-4.32h0c-.7-.15-1.38-.22-2.04-.22-1.88,0-3.55.61-4.75,1.81h0c-1.22,1.21-1.83,2.89-1.83,4.77,0,.65.07,1.32.21,2.01.55,2.67,2.08,5.33,4.29,7.56,1.84,1.85,3.96,3.16,6.04,3.88,1.2.42,2.39.64,3.53.64,1.36,0,2.64-.33,3.71-1.01h.06l.37-.28h0c.15-.11.29-.23.42-.36h0s.14-.12.14-.12h0c.1-.1.18-.19.26-.28h.01l.19-.24c.8-1.01,1.24-2.25,1.35-3.58.02-.23.03-.46.03-.69,0-1.01-.17-2.07-.51-3.14ZM102.53,81.95c-1.99-2-3.34-4.38-3.8-6.65-.12-.58-.18-1.14-.18-1.66,0-1.36.39-2.47,1.1-3.29l.16-.17.04-.04.17-.15.05-.04h.01c1.3.33,2.62,1.55,3.57,2.63.44.5.84,1.03,1.23,1.61.35.51.67,1.03.98,1.59.16.3.32.59.48.87,3.09,5.57,5.1,8.02,6.41,9-.57.2-1.21.31-1.9.31-.8,0-1.67-.14-2.56-.42h0c-1.93-.59-3.96-1.8-5.74-3.58ZM114.35,84.65c-.17.16-.31.29-.46.38h-.01s-.08.07-.08.07l-.06.04h-.01l-.14.09c-.25-.17-.56-.45-.93-.94-.83-1.08-1.96-3.13-3.3-7-.13-.37-.26-.72-.41-1.06h0s0,0,0,0c0,0,0,0,0,0h0c-.37-.93-.79-1.75-1.25-2.45-2.03-3.26-4.56-4.29-6.34-4.58.59-.22,1.25-.35,2-.35.52,0,1.08.06,1.67.18,2.27.48,4.65,1.83,6.64,3.83,1.4,1.4,2.46,2.99,3.12,4.54h0c.41.94.67,1.87.78,2.76h0c.04.33.06.67.06,1,0,1.44-.43,2.65-1.29,3.52ZM115.98,76.87h0s0,0,0,0h0Z"/>
    <polygon class="cls-1" points="107.32 87.07 107.32 87.07 107.32 87.07 107.32 87.07"/>
  </g>
  <g>
    <path class="cls-1" d="M69.78,40.53c-7.12,0-12.91-5.79-12.91-12.91s5.79-12.91,12.91-12.91,12.91,5.79,12.91,12.91-5.79,12.91-12.91,12.91ZM69.78,19.51c-4.47,0-8.11,3.64-8.11,8.11s3.64,8.11,8.11,8.11,8.11-3.64,8.11-8.11-3.64-8.11-8.11-8.11Z"/>
    <path class="cls-1" d="M45.42,35.31c3.57-2.56,7.73-7.48,7.73-11.57,0-4.6-3.89-8.79-8.68-8.79s-8.64,3.68-8.64,8.19l4.54,1.16c0-2.39,1.99-4.34,4.26-4.34,1.58,0,3.49,1.68,3.49,4.05s-3.44,6.27-10.91,13.15v3.15h16.29v-4.99h-8.08Z"/>
    <path class="cls-1" d="M88.12,20.87c0-3.2,2.66-5.84,5.84-5.84s5.82,2.63,5.82,5.82-2.66,5.82-5.84,5.82-5.82-2.61-5.82-5.81ZM106.99,15.31h4.17l-16.96,24.91h-4.19l16.97-24.91ZM96.52,20.87c0-1.44-1.14-2.59-2.58-2.59s-2.61,1.16-2.61,2.59,1.16,2.58,2.61,2.58,2.58-1.16,2.58-2.58ZM101.63,34.71c0-3.2,2.66-5.82,5.84-5.82s5.82,2.61,5.82,5.81-2.66,5.84-5.84,5.84-5.82-2.63-5.82-5.82ZM110.03,34.71c0-1.42-1.14-2.58-2.58-2.58s-2.61,1.16-2.61,2.58,1.16,2.59,2.61,2.59,2.58-1.16,2.58-2.59Z"/>
  </g>
</svg>