<?xml version="1.0" encoding="iso-8859-1"?>
<!-- Generator: Adobe Illustrator 28.5.0, SVG Export Plug-In . SVG Version: 9.03 Build 54727)  -->
<svg version="1.1" id="Layer_1" xmlns="http://www.w3.org/2000/svg" xmlns:xlink="http://www.w3.org/1999/xlink" x="0px" y="0px"
	 viewBox="0 0 300 300" style="enable-background:new 0 0 300 300;" xml:space="preserve">
<path d="M214.176,165.762l-48.358,48.358c-1.3,1.293-2.764,2.264-4.39,2.912c-1.626,0.647-3.247,0.97-4.864,0.97
	c-1.618,0-3.235-0.323-4.853-0.97c-1.618-0.648-3.073-1.618-4.366-2.912L85.826,152.67c-1.22-1.174-2.155-2.552-2.802-4.134
	c-0.647-1.582-0.97-3.246-0.97-4.993V95.006c0-3.577,1.264-6.639,3.792-9.187c2.529-2.547,5.601-3.821,9.216-3.821h48.537
	c1.729,0,3.403,0.351,5.023,1.052c1.621,0.7,3.026,1.643,4.214,2.829l61.34,61.451c1.311,1.3,2.267,2.763,2.869,4.388
	c0.601,1.626,0.902,3.256,0.902,4.891c0,1.634-0.301,3.241-0.902,4.821C216.443,163.01,215.487,164.455,214.176,165.762z
	 M158.164,206.576l48.358-48.358c0.458-0.458,0.687-0.997,0.687-1.618c0-0.619-0.229-1.158-0.687-1.616l-62.138-62.181H95.061
	c-0.642,0-1.181,0.207-1.618,0.621c-0.435,0.413-0.653,0.94-0.653,1.582v48.428c0,0.276,0.046,0.551,0.138,0.825
	c0.092,0.276,0.252,0.528,0.481,0.757l61.519,61.56c0.459,0.459,0.999,0.689,1.618,0.689S157.705,207.035,158.164,206.576z
	 M110.865,119.784c2.496,0,4.616-0.87,6.36-2.609c1.743-1.739,2.614-3.852,2.614-6.339c0-2.504-0.87-4.632-2.609-6.385
	c-1.739-1.754-3.852-2.631-6.339-2.631c-2.504,0-4.632,0.874-6.385,2.622c-1.754,1.748-2.631,3.87-2.631,6.367
	c0,2.496,0.874,4.616,2.622,6.36C106.245,118.912,108.368,119.784,110.865,119.784z"/>
<g>
</g>
<g>
</g>
<g>
</g>
<g>
</g>
<g>
</g>
<g>
</g>
</svg>
