<?xml version="1.0" encoding="iso-8859-1"?>
<!-- Generator: Adobe Illustrator 28.5.0, SVG Export Plug-In . SVG Version: 9.03 Build 54727)  -->
<svg version="1.1" id="Layer_1" xmlns="http://www.w3.org/2000/svg" xmlns:xlink="http://www.w3.org/1999/xlink" x="0px" y="0px"
	 viewBox="0 0 300 300" style="enable-background:new 0 0 300 300;" xml:space="preserve">
<g>
	<path d="M72.834,201.847c-0.577-0.579-0.866-1.214-0.866-1.907v-89.303H58.443v89.303c0,4.483,1.596,8.32,4.788,11.513
		c3.192,3.192,7.03,4.788,11.513,4.788h139.936v-13.526H74.744C74.049,202.715,73.413,202.426,72.834,201.847z"/>
	<path d="M165.78,111.676c-6.3,0-11.632,2.182-15.996,6.546c-4.364,4.364-6.546,9.696-6.546,15.996s2.182,11.632,6.546,15.996
		c4.364,4.364,9.696,6.546,15.996,6.546s11.632-2.182,15.996-6.546s6.546-9.696,6.546-15.996s-2.182-11.632-6.546-15.996
		S172.08,111.676,165.78,111.676z"/>
	<path d="M236.769,88.548c-3.192-3.192-7.03-4.788-11.513-4.788H106.301c-4.482,0-8.318,1.596-11.51,4.788
		c-3.192,3.192-4.788,7.029-4.788,11.51v68.322c0,4.483,1.596,8.32,4.788,11.513c3.192,3.192,7.029,4.788,11.51,4.788h118.955
		c4.483,0,8.32-1.596,11.513-4.788c3.192-3.192,4.788-7.03,4.788-11.513v-68.322C241.557,95.576,239.961,91.74,236.769,88.548z
		 M228.031,154.855c-4.482,0-8.318,1.592-11.51,4.777c-3.192,3.186-4.788,7.027-4.788,11.524h-91.906
		c0-4.483-1.592-8.32-4.777-11.513c-3.185-3.192-7.025-4.788-11.522-4.788v-41.271c4.482,0,8.318-1.592,11.51-4.777
		c3.192-3.185,4.788-7.025,4.788-11.522h91.906c0,4.482,1.592,8.318,4.777,11.51c3.185,3.192,7.025,4.788,11.522,4.788V154.855z"/>
</g>
<g>
</g>
<g>
</g>
<g>
</g>
<g>
</g>
<g>
</g>
<g>
</g>
</svg>
