<?xml version="1.0" encoding="iso-8859-1"?>
<!-- Generator: Adobe Illustrator 28.5.0, SVG Export Plug-In . SVG Version: 9.03 Build 54727)  -->
<svg version="1.1" id="Layer_1" xmlns="http://www.w3.org/2000/svg" xmlns:xlink="http://www.w3.org/1999/xlink" x="0px" y="0px"
	 viewBox="0 0 300 300" style="enable-background:new 0 0 300 300;" xml:space="preserve">
<rect x="183.339" y="129.756" width="40.488" height="11.042"/>
<rect x="198.062" y="115.033" width="11.042" height="40.488"/>
<path d="M149.58,103.77c-5.04-5.04-11.11-7.57-18.2-7.57c-7.08,0-13.15,2.53-18.19,7.57c-5.05,5.05-7.57,11.11-7.57,18.2
	c0,7.09,2.52,13.15,7.57,18.2c5.04,5.04,11.11,7.57,18.19,7.57c7.09,0,13.15-2.53,18.2-7.57c5.05-5.05,7.57-11.11,7.57-18.2
	C157.15,114.88,154.63,108.82,149.58,103.77z M141.78,132.37c-2.88,2.88-6.35,4.32-10.4,4.32s-7.51-1.44-10.39-4.32
	c-2.89-2.89-4.33-6.35-4.33-10.4c0-4.05,1.44-7.52,4.33-10.4c2.88-2.88,6.35-4.32,10.39-4.32c4.05,0,7.52,1.44,10.4,4.32
	c2.88,2.88,4.33,6.35,4.33,10.4C146.11,126.02,144.66,129.48,141.78,132.37z"/>
<path d="M183.66,177.42c-1.96-3.08-4.58-5.44-7.85-7.09c-7.28-3.57-14.62-6.24-22.02-8.03c-7.41-1.78-14.88-2.67-22.41-2.67
	c-7.53,0-15,0.89-22.4,2.67c-7.4,1.79-14.74,4.46-22.02,8.03c-3.28,1.65-5.89,4.01-7.85,7.09c-1.96,3.07-2.94,6.41-2.94,10.01v16.37
	h110.42v-16.37C186.59,183.83,185.62,180.49,183.66,177.42z M175.55,192.75H87.21v-5.32c0-1.49,0.44-2.87,1.3-4.14
	c0.86-1.27,2.04-2.31,3.52-3.11c6.34-3.12,12.81-5.49,19.4-7.1c6.59-1.61,13.24-2.41,19.95-2.41s13.37,0.8,19.96,2.41
	c6.59,1.61,13.06,3.98,19.4,7.1c1.48,0.8,2.65,1.84,3.52,3.11c0.86,1.27,1.29,2.65,1.29,4.14V192.75z"/>
</svg>
