<?xml version="1.0" encoding="UTF-8"?>
<svg id="Layer_1" data-name="Layer 1" xmlns="http://www.w3.org/2000/svg" version="1.1" viewBox="0 0 83.04 107.42">
  <defs>
    <style>
      .cls-1 {
        fill: #000;
        stroke-width: 0px;
      }
    </style>
  </defs>
  <path class="cls-1" d="M80.7,11.29c-2.56-4.95-6.89-8.61-12.18-10.3-5.3-1.69-10.94-1.21-15.89,1.35-4.95,2.56-8.61,6.88-10.3,12.18-.2.65-.38,1.34-.53,2.1H0l33.72,44.74c0,.33.02,46.05.02,46.05h18.86v-6.12h-12.73v-39.92l33.8-44.66-26.33-.09c.04-.15.09-.31.14-.46,1.25-3.92,3.96-7.13,7.63-9.02,3.67-1.89,7.85-2.25,11.77-1,3.92,1.25,7.13,3.96,9.02,7.63,1.9,3.67,2.25,7.85,1,11.77-1.88,5.88-7.11,10-13.2,10.61l-3.64,5.43c9.76,1,19.01-5.02,22-14.39,1.69-5.3,1.21-10.94-1.35-15.9ZM36.8,55.72L11.67,22.48h29.74c.49,6.22,3.74,11.88,8.84,15.45l-13.46,17.79ZM61.94,22.48l-8.43,11.13c-3.76-2.55-6.19-6.61-6.68-11.13h15.11Z"/>
</svg>