<?xml version="1.0" encoding="iso-8859-1"?>
<!-- Generator: Adobe Illustrator 18.1.1, SVG Export Plug-In . SVG Version: 6.00 Build 0)  -->
<svg version="1.1" id="Capa_1" xmlns="http://www.w3.org/2000/svg" xmlns:xlink="http://www.w3.org/1999/xlink" x="0px" y="0px"
	 viewBox="0 0 42.236 42.236" style="enable-background:new 0 0 42.236 42.236;" xml:space="preserve">
<g>
	<g>
		<g>
			<path style="fill:#010002;" d="M40.354,42.236H1.883C0.843,42.236,0,41.393,0,40.355V1.883c0-1.039,0.843-1.882,1.883-1.882H2.42
				c0.795,0,1.504,0.5,1.771,1.247c0.408,1.141,1.486,1.908,2.683,1.908s2.274-0.768,2.683-1.908
				c0.268-0.747,0.977-1.247,1.771-1.247h0.588c0.795,0,1.504,0.5,1.771,1.247c0.409,1.141,1.487,1.908,2.683,1.908
				s2.274-0.768,2.683-1.908c0.268-0.747,0.977-1.247,1.771-1.247h0.588c0.795,0,1.504,0.5,1.771,1.247
				c0.408,1.141,1.486,1.908,2.684,1.908c1.195,0,2.273-0.768,2.682-1.908c0.268-0.747,0.977-1.247,1.771-1.247h0.588
				c0.795,0,1.504,0.5,1.771,1.247c0.409,1.141,1.487,1.908,2.684,1.908c1.195,0,2.273-0.768,2.682-1.908
				c0.268-0.747,0.978-1.247,1.771-1.247h0.537c1.04,0,1.883,0.843,1.883,1.882v38.473C42.237,41.394,41.394,42.236,40.354,42.236z
				 M3.764,38.473h34.709V6.134c-0.938,0.505-2.002,0.786-3.109,0.786c-1.823,0-3.525-0.76-4.748-2.025
				C29.393,6.161,27.69,6.92,25.868,6.92c-1.823,0-3.526-0.76-4.749-2.025c-1.223,1.266-2.926,2.025-4.748,2.025
				s-3.524-0.76-4.747-2.025C10.401,6.161,8.698,6.92,6.875,6.92c-1.108,0-2.172-0.281-3.11-0.786L3.764,38.473L3.764,38.473z"/>
		</g>
		<g>
			<g>
				<path style="fill:#010002;" d="M34.709,16.728H7.529c-1.04,0-1.882-0.843-1.882-1.882s0.842-1.882,1.882-1.882H34.71
					c1.039,0,1.882,0.843,1.882,1.882S35.749,16.728,34.709,16.728z"/>
			</g>
			<g>
				<path style="fill:#010002;" d="M34.709,23H7.529c-1.04,0-1.882-0.843-1.882-1.882c0-1.038,0.842-1.882,1.882-1.882H34.71
					c1.039,0,1.882,0.844,1.882,1.882C36.591,22.157,35.749,23,34.709,23z"/>
			</g>
			<g>
				<path style="fill:#010002;" d="M34.709,29.272H7.529c-1.04,0-1.882-0.843-1.882-1.882s0.842-1.881,1.882-1.881H34.71
					c1.039,0,1.882,0.842,1.882,1.881S35.749,29.272,34.709,29.272z"/>
			</g>
		</g>
	</g>
</g>
<g>
</g>
<g>
</g>
<g>
</g>
<g>
</g>
<g>
</g>
<g>
</g>
<g>
</g>
<g>
</g>
<g>
</g>
<g>
</g>
<g>
</g>
<g>
</g>
<g>
</g>
<g>
</g>
<g>
</g>
</svg>
