<?xml version="1.0"?>
<svg xmlns="http://www.w3.org/2000/svg" viewBox="0 0 50 50">
    <path style="text-indent:0;text-align:start;line-height:normal;text-transform:none;block-progression:tb;-inkscape-font-specification:Sans" d="M 33.625 2 L 34.0625 3.3125 L 35 6.125 L 35 8.21875 C 32.470286 8.4488645 30.020443 8.9835196 27.6875 9.75 L 27.25 8.59375 A 1.0001 1.0001 0 0 0 26.78125 6.65625 A 1.0001 1.0001 0 0 0 26.53125 6.71875 L 24.84375 7.34375 A 1.0001 1.0001 0 0 0 25.375 9.28125 L 25.8125 10.4375 C 24.645392 10.901436 23.503452 11.411551 22.40625 12 L 21.78125 10.90625 A 1.0001 1.0001 0 0 0 21.09375 9.03125 A 1.0001 1.0001 0 0 0 21 9.0625 A 1.0001 1.0001 0 0 0 20.65625 9.21875 L 20 9.59375 A 1.0001 1.0001 0 0 0 19.90625 9.65625 L 19.15625 10.0625 A 1.0077822 1.0077822 0 0 0 20.03125 11.875 L 20.6875 13 C 19.62647 13.654491 18.601676 14.358428 17.625 15.125 L 16.6875 14.03125 L 16.75 13.96875 A 1.0001 1.0001 0 0 0 16.09375 12.1875 A 1.0001 1.0001 0 0 0 16 12.1875 A 1.0001 1.0001 0 0 0 15.46875 12.4375 L 14.875 12.96875 A 1.0001 1.0001 0 0 0 14.40625 13.34375 L 13.96875 13.71875 A 1.0063276 1.0063276 0 1 0 15.15625 15.34375 L 16.0625 16.4375 C 15.128641 17.267599 14.240309 18.13259 13.40625 19.0625 L 12.09375 17.9375 A 1.0001 1.0001 0 0 0 11.28125 16.34375 A 1.0001 1.0001 0 0 0 11.1875 16.34375 A 1.0001 1.0001 0 0 0 10.5 16.71875 L 9.28125 18.21875 A 1.0001 1.0001 0 1 0 10.8125 19.5 L 12.125 20.59375 C 11.353063 21.567938 10.628053 22.597196 9.96875 23.65625 L 8.3125 22.6875 L 8.34375 22.625 A 1.0001 1.0001 0 0 0 7.375 21.09375 A 1.0001 1.0001 0 0 0 7.28125 21.09375 A 1.0001 1.0001 0 0 0 6.59375 21.625 L 5.59375 23.34375 A 1.0077822 1.0077822 0 0 0 7.28125 24.40625 L 8.96875 25.375 C 8.3653783 26.487482 7.8489853 27.627178 7.375 28.8125 L 5.90625 28.28125 L 5.9375 28.21875 A 1.0001 1.0001 0 0 0 4.84375 26.875 A 1.0001 1.0001 0 0 0 4.0625 27.53125 L 3.75 28.375 A 1.0001 1.0001 0 0 0 3.65625 28.71875 L 3.40625 29.375 A 1.0001 1.0001 0 1 0 5.25 30.15625 L 6.65625 30.6875 C 6.2694825 31.85974 5.9730009 33.085811 5.71875 34.3125 L 4.5625 34.09375 L 4.5625 34 A 1.0001 1.0001 0 0 0 3.5625 32.8125 A 1.0001 1.0001 0 0 0 3.46875 32.8125 A 1.0001 1.0001 0 0 0 2.59375 33.65625 L 2.4375 34.53125 A 1.0001 1.0001 0 0 0 2.375 35 L 2.25 35.625 A 1.0001 1.0001 0 0 0 4.1875 36.0625 L 5.375 36.28125 C 5.1994103 37.500825 5.0691791 38.74059 5.03125 40 L 3 40 L 2 40 L 2 41 L 2 47 L 2 48 L 3 48 L 47 48 L 48 48 L 48 47 L 48 42 L 48 41 L 48 40 L 48 3 L 48 2 L 47 2 L 35 2 L 33.625 2 z M 36.375 4 L 46 4 L 46 40 L 7.09375 40 C 7.1988601 36.744034 7.7844977 33.614958 8.8125 30.6875 A 1.0001 1.0001 0 0 0 8.84375 30.625 C 8.8481955 30.612431 8.8705388 30.606311 8.875 30.59375 A 1.0001 1.0001 0 0 0 9 30.21875 C 13.149614 18.994221 23.5818 10.832619 36.0625 10.0625 L 37 10 L 37 9.0625 L 37 6 L 37 5.84375 L 36.9375 5.6875 L 36.375 4 z M 27 17 C 24.794 17 23 18.794 23 21 C 23 22.86054 24.276875 24.398444 26 24.84375 L 26 32.28125 C 25.403104 32.627293 25 33.260396 25 34 C 25 35.104569 25.895431 36 27 36 C 27.739604 36 28.372707 35.596896 28.71875 35 L 33.28125 35 C 33.627293 35.596896 34.260396 36 35 36 C 36.104569 36 37 35.104569 37 34 C 37 32.895431 36.104569 32 35 32 C 34.260396 32 33.627293 32.403104 33.28125 33 L 28.71875 33 C 28.545728 32.701552 28.293982 32.456638 28 32.28125 L 28 21 A 1.0001 1.0001 0 0 0 26.90625 19.96875 A 1.0001 1.0001 0 0 0 26.78125 20 A 1.0001 1.0001 0 0 0 26 21 L 26 22.71875 C 25.403111 22.372357 25 21.738553 25 21 C 25 19.897 25.897 19 27 19 C 28.103 19 29 19.897 29 21 L 29 24.4375 C 30.19 23.7435 31 22.474 31 21 C 31 18.794 29.206 17 27 17 z M 4 42 L 5 42 L 46 42 L 46 46 L 4 46 L 4 42 z"/>
</svg>
