<?xml version='1.0' encoding='iso-8859-1'?>
<svg version="1.1" xmlns="http://www.w3.org/2000/svg" viewBox="0 0 487.5 487.5" xmlns:xlink="http://www.w3.org/1999/xlink" enable-background="new 0 0 487.5 487.5">
  <g>
    <g>
      <path d="m477,110.95h-466.6c-6.2,0-10.4,4.1-10.4,10.4v244.8c0,6.2 4.1,10.4 10.4,10.4h466.7c6.2,0 10.4-4.1 10.4-10.4v-244.9c-0.1-6.2-4.2-10.3-10.5-10.3zm-10.3,244.7h-446v-224h446v224z"/>
      <path d="m243.7,348.35c58.1,0 105.8-46.7 105.8-104.7s-47.7-105.8-105.8-105.8-105.8,46.7-105.8,104.8 47.7,105.7 105.8,105.7zm0-189.7c46.7,0 85,38.4 85,85s-38.4,85-85,85-85-38.4-85-85 38.3-85 85-85z"/>
      <path d="m208.4,268.55l-12.4,15.6c12.4,11.4 27,17.6 43.6,19.7v12.4h11.4v-12.4c12.4,0 21.8-4.1 29-10.4 7.2-6.3 11.4-14.5 11.4-24.9s-3.1-18.7-9.3-23.9c-6.2-5.2-16.6-9.3-30.1-12.4h-1v-33.2c8.3,1 16.6,5.2 24.9,10.4l11.4-16.6c-11.4-8.3-22.8-12.4-36.3-13.5v-9.3h-11.4v9.3c-11.4,0-20.7,4.1-28,10.4-7.3,6.2-10.4,14.5-10.4,24.9s3.1,17.6 9.3,22.8c6.2,5.2 15.6,9.3 29,12.4v34.2c-11.4-2-20.7-7.2-31.1-15.5zm42.5-15.6h0.1c7.3,2.1 11.4,5.2 14.5,7.3 3.1,2.1 4.1,5.2 4.1,9.3s-2.1,7.3-5.2,10.4c-3.1,2.1-7.3,4.1-13.5,5.2l-0-32.2zm-24.8-31.1c-2.1-2.1-3.1-5.2-3.1-9.3 0-4.1 1-7.3 4.1-10.4s7.3-4.1 12.4-5.2v31.066c-6.155-2.088-11.311-4.077-13.4-6.166z"/>
    </g>
  </g>
</svg>
