<?xml version="1.0" encoding="UTF-8"?>
<svg id="Layer_1" data-name="Layer 1" xmlns="http://www.w3.org/2000/svg" version="1.1" viewBox="0 0 52.04 115.55">
  <defs>
    <style>
      .cls-1 {
        fill: #fff;
        stroke-width: 0px;
      }
    </style>
  </defs>
  <path class="cls-1" d="M7.94,108.1c4.88,4.8,11.31,7.44,18.08,7.44h.47c6.84-.13,13.26-2.89,18.07-7.78,4.82-4.9,7.48-11.38,7.48-18.23v-41.03H19.32v8.72h23.99v32.03c0,4.79-1.88,9.28-5.3,12.63-3.25,3.19-7.52,4.94-12.05,4.94-.09,0-.17,0-.26,0-4.55-.08-8.82-1.92-12.02-5.17-3.21-3.26-4.97-7.56-4.97-12.12v-41.05H0v40.68C0,92.78.72,96.29,2.13,99.6c1.37,3.2,3.33,6.06,5.81,8.5Z"/>
  <g>
    <path class="cls-1" d="M23.08,25.68l.09-.08c.62-.57,1.2-1.1,1.76-1.66.68-.68,1.37-1.37,2.04-2.03,2.16-2.15,4.4-4.36,6.48-6.69,1.34-1.5,2.41-3.28,3.02-5.01,1.23-3.52.41-6.89-2.45-10L33.83,0l-.1.25c-1.26,3.24-3.55,5.23-5.98,7.35h0c-1.03.9-2.04,1.76-2.9,2.49-2,1.7-4.07,3.46-6.01,5.3-1.71,1.62-3.26,3.47-4.62,5.49-1.34,2-1.9,4.54-1.57,7.14.33,2.57,1.5,4.99,3.3,6.8l.19.19.09-.26c1.18-3.42,3.53-5.96,5.67-7.99.39-.37.79-.73,1.18-1.09Z"/>
    <path class="cls-1" d="M38.15,18.96l-.13-.22-.15.2c-.32.42-.64.83-.94,1.23l-.05.06c-.7.93-1.37,1.8-2.1,2.61-.87.95-1.83,1.85-2.76,2.71l-.98.92c-.53.49-1.06.99-1.59,1.48l-.23.21c-1.07.99-2.29,2.11-3.41,3.23-.93.93-1.99,2.05-2.81,3.33-1.89,2.93-1.64,5.8.75,8.79l.17.21.12-.24c1.38-2.82,3.58-4.76,5.92-6.82l.75-.66c.32-.29.66-.58.98-.86,1.09-.94,2.12-1.82,3.03-2.82,1.34-1.47,2.72-3.06,3.7-4.82,1.5-2.72,1.41-5.67-.27-8.53Z"/>
  </g>
</svg>