<?xml version="1.0" ?><svg id="Layer_1" style="enable-background:new 0 0 512 512;" version="1.1" viewBox="0 0 512 512" xml:space="preserve" xmlns="http://www.w3.org/2000/svg" xmlns:xlink="http://www.w3.org/1999/xlink"><g id="XMLID_1060_"><rect height="19.1" id="XMLID_260_" width="227.1" x="120.3" y="158.6"/><rect height="19.1" id="XMLID_259_" width="227.1" x="120.3" y="189.6"/><rect height="19.1" id="XMLID_258_" width="227.1" x="120.3" y="220.7"/><rect height="19.1" id="XMLID_257_" width="227.1" x="120.3" y="251.7"/><rect height="19.1" id="XMLID_256_" width="176.5" x="120.3" y="282.7"/><path d="M456.1,75.1L397.6,7.3c-1.8-1.8-4.9-1.8-6.7,0l-58.5,67.8c-2.6,2.6-0.6,6.7,3.3,6.7h27.4V135h62.1V81.8   h27.4C456.7,81.8,458.7,77.7,456.1,75.1z" id="XMLID_255_"/><rect height="24.2" id="XMLID_254_" width="62.1" x="363.2" y="144.6"/><path d="M363.2,187.3c0,2.2,2,4,4.5,4h53.1c2.5,0,4.5-1.8,4.5-4v-8.9h-62.1V187.3z" id="XMLID_253_"/><path d="M386.7,464.2c0,15.8-12.8,28.6-28.6,28.6H109.5c-15.8,0-28.6-12.8-28.6-28.6v-8.8H67.7V469   c0,20.5,16.6,37,37,37h258.1c20.5,0,37-16.6,37-37V200.4h-13.2V464.2z" id="XMLID_252_"/><path d="M80.9,110.3c0-15.8,12.8-28.6,28.6-28.6h213.2c-1.4-4.4-0.3-9.3,3-12.7l0.4-0.4H104.8   c-20.5,0-37,16.6-37,37V333h13.2V110.3z" id="XMLID_251_"/><path d="M199.8,372.3c-4.3,0-7.7,1.6-10.2,4.7c-2.5,3.1-3.7,7.1-3.7,12v10.6c0,4.9,1.2,8.9,3.7,12.1   c2.5,3.1,5.9,4.7,10.1,4.7c4.5,0,8-1.6,10.6-4.7c2.6-3.1,3.9-7.2,3.9-12.1v-10.6c0-4.9-1.3-8.9-3.9-12S204.2,372.3,199.8,372.3z" id="XMLID_250_"/><path d="M345.4,394.3L345.4,394.3c0-28.7-23.3-52.1-52.1-52.1H54.7v104.1h238.7   C322.1,446.3,345.4,423,345.4,394.3z M164.9,398.7c0,7.3-2.3,13.2-6.9,17.8c-4.6,4.6-10.6,6.9-18,6.9h-19.3v-58.3H140   c7.4,0,13.4,2.3,18,6.9c4.6,4.6,6.9,10.6,6.9,17.8V398.7z M223.9,399.5c0,7.1-2.2,13-6.7,17.7c-4.5,4.7-10.3,7-17.4,7   c-7,0-12.6-2.3-17-7c-4.4-4.7-6.6-10.6-6.6-17.7V389c0-7.1,2.2-13,6.5-17.7s10-7,17-7c7.1,0,12.9,2.3,17.4,7   c4.5,4.7,6.7,10.6,6.7,17.7V399.5z M248.2,411.8c2.3,3.1,5.6,4.7,9.6,4.7c4,0,7-1,9.1-3.1c2.1-2.1,3.1-5.1,3.1-9h9.4l0.1,0.2   c0.1,5.9-1.8,10.6-5.7,14.2c-3.9,3.6-9.2,5.4-15.9,5.4c-6.8,0-12.3-2.3-16.5-6.9c-4.2-4.6-6.3-10.4-6.3-17.6v-11.1   c0-7.1,2.1-13,6.2-17.6c4.2-4.6,9.6-6.9,16.3-6.9c6.9,0,12.3,1.7,16.2,5.2c3.9,3.5,5.9,8.3,5.7,14.4l-0.1,0.2H270   c0-3.9-1.1-6.9-3.2-9c-2.1-2.1-5.2-3.1-9.3-3.1c-4,0-7.1,1.6-9.4,4.7c-2.3,3.1-3.5,7.1-3.5,11.9v11.2   C244.6,404.7,245.8,408.6,248.2,411.8z" id="XMLID_1062_"/><path d="M140,372.9h-9.5v42.7h9.5c4.7,0,8.4-1.6,11.1-4.7c2.7-3.2,4.1-7.2,4.1-12.2v-8.9c0-4.9-1.4-9-4.1-12.1   C148.3,374.5,144.6,372.9,140,372.9z" id="XMLID_245_"/></g></svg>