<?xml version="1.0" ?><!DOCTYPE svg  PUBLIC '-//W3C//DTD SVG 1.1//EN'  'http://www.w3.org/Graphics/SVG/1.1/DTD/svg11.dtd'><svg enable-background="new 0 0 128 128" id="Слой_1" version="1.1" viewBox="0 0 128 128" xml:space="preserve" xmlns="http://www.w3.org/2000/svg" xmlns:xlink="http://www.w3.org/1999/xlink"><g><path d="M119,69V49c0-8.3-6.7-15-15-15H19c-8.3,0-15-6.7-15-15v90c0,8.3,6.7,15,15,15h85c8.3,0,15-6.7,15-15V89" fill="#FFFFFF"/></g><g><g><path d="M19,34c-8.3,0-15-6.7-15-15v90c0,8.3,6.7,15,15,15V34z" fill="#E5E6E6"/><g><path d="M19,110.5c-0.8,0-1.5-0.7-1.5-1.5V34c0-0.8,0.7-1.5,1.5-1.5s1.5,0.7,1.5,1.5v75     C20.5,109.8,19.8,110.5,19,110.5z" fill="#4A374F"/></g></g><g><path d="M19,4C10.5,4,3.6,11.1,4,19.7C4.4,27.8,11.3,34,19.4,34H104c8.3,0,15,6.7,15,15V19c0-8.3-6.7-15-15-15H19z    " fill="#D8D7D8"/></g><g><path d="M19,4C10.5,4,3.6,11.1,4,19.7C4.4,27.8,11.3,34,19.4,34H104c8.3,0,15,6.7,15,15V19c0-8.3-6.7-15-15-15H19z    " fill="#D8D7D8"/></g><path d="M14,33c1.7,0.6,3.5,1,5.4,1H104c1.8,0,3.4,0.3,5,0.9V24c0-2.8-2.2-5-5-5l-90,0V33z" fill="#F4F3F2"/><path d="M109.2,89c-5.7,0-10.4-4.8-10-10.7c0.3-5.3,5-9.3,10.3-9.3H122c1.1,0,2,0.9,2,2v16c0,1.1-0.9,2-2,2H109.2z" fill="#E5E6E6"/><g><path d="M109,36.4c-0.2,0-0.3,0-0.5-0.1c-1.5-0.5-3-0.8-4.5-0.8H19.4c-2,0-4-0.4-5.9-1.1c-0.6-0.2-1-0.8-1-1.4v-9    c0-3.6,2.9-6.5,6.5-6.5l85,0c1.7,0,3.4,0.7,4.6,1.9c1.2,1.2,1.9,2.9,1.9,4.6v10.9c0,0.5-0.2,0.9-0.6,1.2    C109.6,36.3,109.3,36.4,109,36.4z M15.5,31.9c1.3,0.4,2.6,0.6,3.9,0.6H104c1.2,0,2.3,0.1,3.5,0.4V24c0-1.9-1.6-3.5-3.5-3.5l-85,0    c-1.9,0-3.5,1.6-3.5,3.5V31.9z" fill="#4A374F"/></g><g><g><path d="M119,50.5c-0.8,0-1.5-0.7-1.5-1.5c0-7.4-6.1-13.5-13.5-13.5H19.4c-9.1,0-16.5-6.9-16.9-15.7     c-0.2-4.6,1.4-8.9,4.5-12.2c3.1-3.3,7.4-5.1,11.9-5.1h85c9.1,0,16.5,7.4,16.5,16.5v30C120.5,49.8,119.8,50.5,119,50.5z M19,5.5     c-3.7,0-7.2,1.5-9.8,4.2c-2.6,2.7-3.9,6.2-3.7,10c0.3,7.2,6.4,12.8,13.9,12.8H104c5.6,0,10.5,2.8,13.5,7V19     c0-7.4-6.1-13.5-13.5-13.5H19z" fill="#4A374F"/></g></g><g><path d="M122,90.5h-12.8c-3.2,0-6.2-1.3-8.4-3.6c-2.2-2.3-3.3-5.4-3.1-8.6c0.4-6,5.6-10.7,11.8-10.7H122    c1.9,0,3.5,1.6,3.5,3.5v16C125.5,88.9,123.9,90.5,122,90.5z M109.5,70.5c-4.7,0-8.5,3.5-8.8,7.9c-0.2,2.4,0.7,4.6,2.3,6.4    c1.6,1.7,3.8,2.7,6.2,2.7H122c0.3,0,0.5-0.2,0.5-0.5V71c0-0.3-0.2-0.5-0.5-0.5H109.5z" fill="#4A374F"/></g><g><g><path d="M104,125.5H19c-9.1,0-16.5-7.4-16.5-16.5V19c0-0.8,0.7-1.5,1.5-1.5s1.5,0.7,1.5,1.5     c0,7.4,6.1,13.5,13.5,13.5h85c9.1,0,16.5,7.4,16.5,16.5v20c0,0.8-0.7,1.5-1.5,1.5s-1.5-0.7-1.5-1.5V49c0-7.4-6.1-13.5-13.5-13.5     H19c-5.6,0-10.5-2.8-13.5-7V109c0,7.4,6.1,13.5,13.5,13.5h85c7.4,0,13.5-6.1,13.5-13.5V89c0-0.8,0.7-1.5,1.5-1.5s1.5,0.7,1.5,1.5     v20C120.5,118.1,113.1,125.5,104,125.5z" fill="#4A374F"/></g></g></g></svg>