<?xml version='1.0' encoding='iso-8859-1'?>
<svg version="1.1" xmlns="http://www.w3.org/2000/svg" viewBox="0 0 32 32" xmlns:xlink="http://www.w3.org/1999/xlink" enable-background="new 0 0 32 32">
  <g>
    <path d="m28.95,16c-1.1,0-2,0.9-2,2 0,1.9 1,3.7 1,5.7 0,3.5-6.1,6.3-9.6,6.3h-6.7c-4.6,0-9.6-5.2-9.6-9.8v-9.8c0-3.5 2.8-6.3 6.3-6.3 1.9,0 3.7,1 5.7,1 1.1,0 2-0.9 2-2s-0.9-2-2-2c-2.7,0-5.4,0.6-8,1.3-3.5,1-6,4.2-6,8v13.3c0,4.6 3.7,8.3 8.3,8.3h13.3c3.5,0 6.5-2.2 7.7-5.2 1.1-2.8 1.6-5.8 1.6-8.8-3.55271e-15-1.1-0.9-2-2-2z"/>
    <path d="m31.65,4.3l-4-4c-0.2-0.2-0.5-0.3-0.7-0.3-0.3,0-0.5,0.1-0.7,0.3-0.4,0.4-0.4,1 0,1.4l.7,.7c0.9,0.9-0.3,1.6-1,1.6-8.3,0-15,6.7-15,15 0,1.1 0.9,2 2,2s2-0.9 2-2c0-2.1-1.4-4.5-0.3-6.4 2.2-3.9 6.5-6.6 11.3-6.6 1.6,0 1.3,1.3 0.8,1.7l-.5,.5c-0.4,0.4-0.4,1 0,1.4 0.2,0.2 0.5,0.3 0.7,0.3 0.3,0 0.5-0.1 0.7-0.3l4-4c0.2-0.2 0.3-0.5 0.3-0.7s-0.1-0.4-0.3-0.6z"/>
  </g>
</svg>
