<?xml version="1.0" encoding="iso-8859-1"?>
<!-- Generator: Adobe Illustrator 28.5.0, SVG Export Plug-In . SVG Version: 9.03 Build 54727)  -->
<svg version="1.1" id="Layer_1" xmlns="http://www.w3.org/2000/svg" xmlns:xlink="http://www.w3.org/1999/xlink" x="0px" y="0px"
	 viewBox="0 0 300 300" style="enable-background:new 0 0 300 300;" xml:space="preserve">
<path d="M150,209.822c-11.11,0-21.192-2.75-30.246-8.251c-9.053-5.5-16.154-12.87-21.304-22.11v16.994h-8.546v-31.335h31.335v8.546
	h-16.183c4.119,8.298,10.207,14.974,18.264,20.029s16.95,7.582,26.679,7.582c6.975,0,13.518-1.289,19.629-3.867
	c6.109-2.579,11.458-6.098,16.045-10.557s8.271-9.725,11.05-15.799c2.779-6.073,4.279-12.616,4.498-19.629h8.545
	c-0.182,8.093-1.875,15.682-5.078,22.768c-3.203,7.085-7.498,13.275-12.885,18.57c-5.387,5.296-11.669,9.463-18.845,12.501
	C165.782,208.303,158.129,209.822,150,209.822z M145.968,188.786v-7.187c-4.17-0.972-7.638-2.704-10.403-5.195
	c-2.764-2.491-4.884-5.85-6.36-10.079l7.209-2.937c1.359,3.711,3.304,6.531,5.835,8.459c2.531,1.928,5.399,2.891,8.606,2.891
	c3.243,0,6.154-0.809,8.733-2.427c2.578-1.617,3.867-4.212,3.867-7.784c0-2.973-1.108-5.341-3.324-7.105
	c-2.217-1.764-6.353-3.757-12.409-5.978c-5.858-2.103-10.083-4.459-12.677-7.066c-2.593-2.607-3.89-6.052-3.89-10.332
	c0-3.674,1.326-7.038,3.978-10.091c2.651-3.053,6.358-4.999,11.12-5.84v-6.902h7.78v6.902c3.199,0.249,6.145,1.452,8.837,3.611
	c2.691,2.158,4.632,4.753,5.823,7.784l-7.033,2.827c-0.979-2.111-2.378-3.866-4.198-5.264c-1.818-1.399-4.21-2.098-7.176-2.098
	c-3.543,0-6.32,0.84-8.332,2.52c-2.012,1.68-3.018,3.864-3.018,6.552s0.982,4.781,2.947,6.278c1.965,1.497,5.942,3.269,11.932,5.314
	c6.837,2.469,11.431,5.237,13.783,8.304c2.352,3.068,3.528,6.596,3.528,10.584c0,2.718-0.502,5.102-1.507,7.154
	c-1.005,2.053-2.317,3.779-3.938,5.177c-1.622,1.399-3.468,2.504-5.539,3.314c-2.071,0.81-4.202,1.38-6.392,1.709v6.902H145.968z
	 M90.234,148.576c0.255-8.275,2.003-15.965,5.242-23.068c3.24-7.104,7.571-13.285,12.994-18.543
	c5.424-5.26,11.697-9.372,18.818-12.338c7.122-2.965,14.692-4.448,22.712-4.448c11.001,0,21.082,2.759,30.246,8.278
	c9.163,5.518,16.264,12.952,21.304,22.302v-17.213h8.546v31.335H178.76v-8.546h16.183c-4.01-8.152-10.052-14.792-18.127-19.919
	c-8.075-5.128-17.014-7.691-26.816-7.691c-6.829,0-13.29,1.271-19.382,3.813c-6.091,2.542-11.449,6.024-16.072,10.446
	c-4.623,4.423-8.352,9.671-11.187,15.745c-2.834,6.073-4.361,12.689-4.581,19.848H90.234z"/>
<g>
</g>
<g>
</g>
<g>
</g>
<g>
</g>
<g>
</g>
<g>
</g>
</svg>
