<?xml version="1.0" encoding="UTF-8"?>
<svg id="Layer_1" data-name="Layer 1" xmlns="http://www.w3.org/2000/svg" version="1.1" viewBox="0 0 78.14 106.83">
  <defs>
    <style>
      .cls-1 {
        fill: #fff;
        stroke-width: 0px;
      }
    </style>
  </defs>
  <path class="cls-1" d="M64.95,49.86h-10.36V16.63c0-5.43,4.42-9.85,9.85-9.85h6.91v100.05h6.79V0h-13.7C55.27,0,47.81,7.46,47.81,16.63v40.02h17.14v-6.79Z"/>
  <path class="cls-1" d="M17.59,106.83v-50.71c5.79-.77,10.72-3.53,14.32-8.03,3.89-4.86,5.94-11.41,5.94-18.96V0h-6.79v29.13c0,15.08-9.09,20.43-16.87,20.43h-3.39v57.28h6.79Z"/>
  <path class="cls-1" d="M24.59,30.23V0h-6.79v30.23c0,3.04-2.47,5.51-5.51,5.51s-5.51-2.47-5.51-5.51V0H0v30.23C0,37.01,5.52,42.53,12.3,42.53s12.3-5.52,12.3-12.3Z"/>
</svg>