<?xml version="1.0" ?><svg style="enable-background:new 0 0 48 48;" version="1.1" viewBox="0 0 48 48" xml:space="preserve" xmlns="http://www.w3.org/2000/svg" xmlns:xlink="http://www.w3.org/1999/xlink"><style type="text/css">
	.st0{display:none;}
	.st1{fill:none;stroke:#303030;stroke-width:0.7;stroke-linecap:round;stroke-linejoin:round;stroke-miterlimit:10;}
	.st2{fill:#303030;}
</style><g class="st0" id="Padding__x26__Artboard"/><g id="Icons"><g><path class="st1" d="M15.32806,24.47509v11.99c0,0.87,0.78,1.59,1.75,1.59h5.39h3.06h1.27"/><path class="st1" d="M32.66806,24.47509v11.99c0,0.87-0.79,1.59-1.76,1.59h-1.05"/><path class="st1" d="M19.89194,13.73477l3.13-3.3889c0.49-0.53461,1.46-0.53461,1.96,0l11.52,12.4773    c0.63,0.67053,0.05,1.64914-0.98,1.64914h-2.85"/><path class="st1" d="M15.33194,24.47232h-2.86c-1.02,0-1.6-0.97861-0.98-1.64914l3.84-4.1591"/><path class="st1" d="M19.89194,13.73477v-2.08408c0-0.59804-0.54-1.08735-1.21-1.08735h-2.15c-0.66,0-1.2,0.48931-1.2,1.08735    v7.01338"/><polyline class="st1" points="26.79764,38.05509 26.79764,30.97509 29.85764,30.97509 29.85764,38.05509   "/><line class="st1" x1="17.75234" x2="17.75234" y1="24.47232" y2="30.20798"/><line class="st1" x1="17.75234" x2="17.75234" y1="32.61734" y2="34.2585"/></g></g></svg>