<?xml version="1.0" encoding="utf-8"?>
<!-- Generator: Adobe Illustrator 24.1.1, SVG Export Plug-In . SVG Version: 6.00 Build 0)  -->
<svg version="1.1" id="Layer_1" xmlns="http://www.w3.org/2000/svg" xmlns:xlink="http://www.w3.org/1999/xlink" x="0px" y="0px"
	 viewBox="0 0 512 512" style="enable-background:new 0 0 512 512;" xml:space="preserve">
<g>
	<path d="M106.66,127.99c-35.28,0-64-28.72-64-64s28.72-64,64-64s64,28.72,64,64S141.96,127.99,106.66,127.99z M106.66,21.33
		C83.13,21.33,64,40.47,64,64s19.13,42.66,42.66,42.66S149.33,87.53,149.33,64S130.19,21.33,106.66,21.33z"/>
	<path d="M351.98,511.96c-5.89,0-10.67-4.77-10.67-10.67V298.65h-85.33l-0.83-0.06h-45.25c-21.27,0-41.98-5.23-60.58-15.21v25.94
		h21.8c42.75,0,81.23,25.4,98.03,64.7l34.1,78.46c9.26,21.69-0.83,46.81-22.46,56.06c-5.31,2.25-10.95,3.4-16.71,3.42
		c-17.12,0-32.53-10.15-39.25-25.87l-34.11-78.45c-3.4-7.9-11.09-12.97-19.62-12.97H50.79L20.95,504.13
		c-1.26,4.62-5.5,7.87-10.28,7.87l-2.81-0.4c-5.66-1.56-9.01-7.42-7.47-13.1l31.39-115.1L0.15,182.99
		c-0.45-2.82,0.24-5.64,1.91-7.94c1.68-2.3,4.16-3.82,6.97-4.27l1.65-0.13c5.21,0,9.73,3.89,10.54,9l30.56,193.65h17.95
		C66,366.89,64,359.59,64,351.98V181.32c0-23.53,19.13-42.66,42.66-42.66c12.48,0,24.28,5.44,32.4,14.88l38.39,44.8
		c8.1,9.48,19.93,14.89,32.38,14.89h56.81c23.53,0,42.66,19.13,42.66,42.66c0,7.63-2.01,14.97-5.76,21.39h187.08
		c5.89,0,10.67,4.78,10.67,10.67c0,5.89-4.78,10.67-10.67,10.67H362.65v202.64C362.65,507.17,357.87,511.96,351.98,511.96z
		 M106.66,159.99c-11.76,0-21.33,9.58-21.33,21.33v170.66c0,11.77,9.57,21.33,21.33,21.33h64.46c17.08,0,32.47,10.16,39.21,25.85
		l34.11,78.46c3.4,7.92,11.09,12.98,19.64,12.98c2.91,0,5.72-0.56,8.36-1.69c10.81-4.65,15.87-17.19,11.24-28l-34.1-78.45
		c-13.47-31.49-44.27-51.82-78.46-51.82h-32.47c-5.89,0-10.67-4.78-10.67-10.67v-56.1c0-4.07,2.28-7.75,5.93-9.56l4.74-1.12
		c2.32,0,4.62,0.76,6.46,2.2c18.46,14.09,41.41,21.86,64.64,21.86h56.89c11.77,0,21.33-9.58,21.33-21.33
		c0-11.76-9.56-21.33-21.33-21.33h-56.77c-18.75,0-36.46-8.16-48.63-22.35l-38.4-44.8C118.8,162.7,112.91,159.99,106.66,159.99z"/>
	<path d="M341.32,255.98c-5.89,0-10.67-4.78-10.67-10.67s4.78-10.67,10.67-10.67h102.39c4.46,0,8.47-2.83,10.01-7.02l37.58-103.29
		c1.52-4.21,5.55-7.02,10.03-7.02l3.62,0.64c2.69,0.99,4.84,2.95,6.04,5.53c1.19,2.58,1.32,5.48,0.33,8.15l-37.56,103.27
		c-4.56,12.58-16.63,21.05-30.04,21.07H341.32z"/>
	<circle cx="362.65" cy="142.91" r="16"/>
	<path d="M447.98,51.52c-2.44,0-4.8-0.85-6.7-2.36c-22.04-17.84-49.94-27.65-78.63-27.65c-28.7,0-56.59,9.81-78.63,27.63
		c-1.87,1.53-4.27,2.39-6.7,2.39c-3.24,0-6.25-1.45-8.3-3.97c-1.79-2.22-2.6-4.99-2.3-7.83c0.3-2.83,1.69-5.37,3.91-7.17
		c25.79-20.86,58.47-32.36,92.03-32.36c33.55,0,66.24,11.5,92.03,32.36c2.22,1.79,3.6,4.33,3.91,7.17c0.29,2.84-0.53,5.61-2.32,7.83
		C454.25,50.07,451.22,51.52,447.98,51.52z"/>
	<path d="M412.42,103.04c-2.44,0-4.8-0.83-6.7-2.37c-12.05-9.76-27.35-15.12-43.07-15.12c-15.72,0-31,5.39-43.07,15.12
		c-1.9,1.54-4.29,2.37-6.7,2.37c-3.24,0-6.25-1.45-8.3-3.97c-1.79-2.22-2.62-4.99-2.32-7.83c0.3-2.83,1.69-5.37,3.91-7.17
		c15.82-12.8,35.88-19.83,56.47-19.83c20.58,0,40.63,7.03,56.47,19.83c2.22,1.79,3.6,4.33,3.91,7.17c0.29,2.84-0.53,5.61-2.33,7.83
		C418.69,101.59,415.66,103.04,412.42,103.04z"/>
</g>
</svg>
