<?xml version="1.0" encoding="iso-8859-1"?>
<!-- Generator: Adobe Illustrator 28.5.0, SVG Export Plug-In . SVG Version: 9.03 Build 54727)  -->
<svg version="1.1" id="Layer_1" xmlns="http://www.w3.org/2000/svg" xmlns:xlink="http://www.w3.org/1999/xlink" x="0px" y="0px"
	 viewBox="0 0 300 300" style="enable-background:new 0 0 300 300;" xml:space="preserve">
<path d="M183.339,140.798v-11.042h40.488v11.042H183.339z M131.384,147.735c-7.085,0-13.151-2.523-18.196-7.568
	c-5.046-5.046-7.569-11.112-7.569-18.198s2.523-13.151,7.569-18.196c5.045-5.046,11.11-7.569,18.196-7.569
	s13.151,2.523,18.196,7.569c5.046,5.045,7.569,11.11,7.569,18.196s-2.523,13.151-7.569,18.198
	C144.534,145.212,138.469,147.735,131.384,147.735z M76.173,203.796v-16.366c0-3.605,0.979-6.943,2.937-10.015
	c1.958-3.072,4.575-5.434,7.851-7.085c7.276-3.567,14.616-6.242,22.02-8.026s14.872-2.676,22.403-2.676
	c7.531,0,14.998,0.892,22.403,2.676c7.404,1.784,14.744,4.459,22.02,8.026c3.276,1.651,5.893,4.013,7.851,7.085
	c1.958,3.072,2.937,6.411,2.937,10.015v16.366H76.173z M87.215,192.753h88.337v-5.324c0-1.491-0.432-2.871-1.296-4.141
	c-0.864-1.269-2.036-2.304-3.517-3.107c-6.343-3.124-12.81-5.49-19.401-7.1c-6.592-1.608-13.244-2.413-19.955-2.413
	c-6.711,0-13.363,0.804-19.955,2.413c-6.591,1.61-13.058,3.976-19.401,7.1c-1.481,0.802-2.653,1.838-3.517,3.107
	c-0.864,1.27-1.296,2.65-1.296,4.141V192.753z M131.384,136.692c4.049,0,7.515-1.442,10.398-4.325
	c2.883-2.883,4.325-6.349,4.325-10.398c0-4.049-1.442-7.515-4.325-10.398c-2.883-2.883-6.349-4.325-10.398-4.325
	c-4.049,0-7.515,1.442-10.398,4.325c-2.883,2.883-4.325,6.349-4.325,10.398c0,4.049,1.442,7.515,4.325,10.398
	C123.869,135.251,127.335,136.692,131.384,136.692z"/>
<g>
</g>
<g>
</g>
<g>
</g>
<g>
</g>
<g>
</g>
<g>
</g>
</svg>
