<?xml version="1.0" encoding="iso-8859-1"?>
<!-- Generator: Adobe Illustrator 28.5.0, SVG Export Plug-In . SVG Version: 9.03 Build 54727)  -->
<svg version="1.1" id="Layer_1" xmlns="http://www.w3.org/2000/svg" xmlns:xlink="http://www.w3.org/1999/xlink" x="0px" y="0px"
	 viewBox="0 0 300 300" style="enable-background:new 0 0 300 300;" xml:space="preserve">
<path d="M143.957,204.388V95.612h12.086v108.775H143.957z M63.383,180.215v-3.005c0-2.758,0.769-5.261,2.308-7.507
	c1.539-2.247,3.647-3.964,6.323-5.153c3.336-1.477,6.798-2.592,10.388-3.346c3.59-0.755,7.322-1.132,11.196-1.132
	c3.874,0,7.606,0.377,11.196,1.132c3.59,0.753,7.052,1.869,10.388,3.346c2.676,1.188,4.784,2.906,6.323,5.153
	c1.539,2.247,2.308,4.749,2.308,7.508v3.005H63.383z M176.187,180.215v-3.005c0-2.758,0.769-5.261,2.308-7.507
	c1.539-2.247,3.647-3.964,6.323-5.153c3.336-1.477,6.798-2.592,10.388-3.346c3.59-0.755,7.321-1.132,11.196-1.132
	c3.874,0,7.606,0.377,11.196,1.132c3.59,0.753,7.052,1.869,10.388,3.346c2.676,1.188,4.784,2.906,6.323,5.153
	c1.539,2.247,2.308,4.749,2.308,7.508v3.005H176.187z M93.598,147.986c-3.915,0-7.244-1.371-9.987-4.113
	c-2.742-2.744-4.113-6.073-4.113-9.987s1.371-7.244,4.113-9.987c2.744-2.742,6.073-4.113,9.987-4.113s7.244,1.371,9.987,4.113
	c2.742,2.744,4.113,6.073,4.113,9.987s-1.371,7.244-4.113,9.987C100.842,146.615,97.513,147.986,93.598,147.986z M206.402,147.986
	c-3.915,0-7.244-1.371-9.987-4.113c-2.742-2.744-4.113-6.073-4.113-9.987s1.371-7.244,4.113-9.987
	c2.744-2.742,6.073-4.113,9.987-4.113s7.244,1.371,9.987,4.113c2.742,2.744,4.113,6.073,4.113,9.987s-1.371,7.244-4.113,9.987
	C213.646,146.615,210.316,147.986,206.402,147.986z"/>
<g>
</g>
<g>
</g>
<g>
</g>
<g>
</g>
<g>
</g>
<g>
</g>
</svg>
