<?xml version="1.0" encoding="iso-8859-1"?>
<!-- Generator: Adobe Illustrator 18.1.1, SVG Export Plug-In . SVG Version: 6.00 Build 0)  -->
<svg version="1.1" id="Capa_1" xmlns="http://www.w3.org/2000/svg" xmlns:xlink="http://www.w3.org/1999/xlink" x="0px" y="0px"
	 viewBox="0 0 80 80" style="enable-background:new 0 0 80 80;" xml:space="preserve">
<g id="_x37_7_Essential_Icons_13_">
	<path id="Controls" d="M21,26.3V24c0-1.1-0.9-2-2-2s-2,0.9-2,2v2.3c-2.9,0.9-5,3.5-5,6.7s2.1,5.8,5,6.7V56c0,1.1,0.9,2,2,2
		s2-0.9,2-2V39.7c2.9-0.9,5-3.5,5-6.7S23.9,27.2,21,26.3z M19,36c-1.7,0-3-1.4-3-3c0-1.7,1.3-3,3-3s3,1.3,3,3C22,34.6,20.7,36,19,36
		z M42,40.3V24c0-1.1-0.9-2-2-2s-2,0.9-2,2v16.3c-2.9,0.9-5,3.5-5,6.7s2.1,5.8,5,6.7V56c0,1.1,0.9,2,2,2s2-0.9,2-2v-2.3
		c2.9-0.9,5-3.5,5-6.7S44.9,41.2,42,40.3z M40,50c-1.7,0-3-1.4-3-3c0-1.7,1.3-3,3-3s3,1.3,3,3C43,48.6,41.7,50,40,50z M63,32.3V24
		c0-1.1-0.9-2-2-2s-2,0.9-2,2v8.3c-2.9,0.9-5,3.5-5,6.7s2.1,5.8,5,6.7V56c0,1.1,0.9,2,2,2s2-0.9,2-2V45.7c2.9-0.9,5-3.5,5-6.7
		S65.9,33.2,63,32.3z M61,42c-1.7,0-3-1.4-3-3c0-1.7,1.3-3,3-3s3,1.3,3,3C64,40.6,62.7,42,61,42z M78,10H2c-1.1,0-2,0.9-2,2v56
		c0,1.1,0.9,2,2,2h76c1.1,0,2-0.9,2-2V12C80,10.9,79.1,10,78,10z M76,66H4V14h72V66z"/>
</g>
<g>
</g>
<g>
</g>
<g>
</g>
<g>
</g>
<g>
</g>
<g>
</g>
<g>
</g>
<g>
</g>
<g>
</g>
<g>
</g>
<g>
</g>
<g>
</g>
<g>
</g>
<g>
</g>
<g>
</g>
</svg>
