<?xml version="1.0" encoding="UTF-8"?>
<svg id="Layer_1" data-name="Layer 1" xmlns="http://www.w3.org/2000/svg" version="1.1" viewBox="0 0 86.51 107.42">
  <defs>
    <style>
      .cls-1 {
        fill: #000;
        stroke-width: 0px;
      }
    </style>
  </defs>
  <path class="cls-1" d="M64.01,20.91v-.15C64.01,9.31,54.7,0,43.26,0s-20.76,9.31-20.76,20.76v.15H0v86.51h86.51V20.91h-22.5ZM80.22,101.13H6.29V27.2h16.21v5.8h5.65v-5.8h23.85v-6.29h-23.85v-.15c0-8.33,6.78-15.11,15.11-15.11s15.11,6.78,15.11,15.11v11.69l-.68,1.44-11.78,4.22-11.19,23.69,18.26,8.63,11.36-24.03-4.22-11.78,3.27-7.42h16.85v73.93ZM54.07,41.53c-.35,0-.7.04-1.04.16-.75.27-1.36.82-1.7,1.54-.71,1.5-.06,3.29,1.43,3.99.41.19.85.29,1.27.29,1.12,0,2.21-.63,2.72-1.71h0c.34-.73.38-1.54.11-2.29-.12-.34-.31-.63-.54-.9l1.81-3.83,2.67,7.46-9.39,19.88-12.39-5.85,9.23-19.54,7.46-2.67-1.65,3.49ZM55.06,44.99c-.27.56-.94.8-1.5.54-.56-.26-.8-.94-.54-1.5.13-.27.35-.48.64-.58.12-.05.25-.07.38-.07.16,0,.33.04.48.11.27.13.48.35.58.64.1.28.09.59-.04.86Z"/>
</svg>