<?xml version="1.0" encoding="iso-8859-1"?>
<!-- Generator: Adobe Illustrator 28.5.0, SVG Export Plug-In . SVG Version: 9.03 Build 54727)  -->
<svg version="1.1" id="Layer_1" xmlns="http://www.w3.org/2000/svg" xmlns:xlink="http://www.w3.org/1999/xlink" x="0px" y="0px"
	 viewBox="0 0 300 300" style="enable-background:new 0 0 300 300;" xml:space="preserve">
<path d="M108.035,225.503c-4.46,0-8.27-1.579-11.43-4.738c-3.159-3.16-4.738-6.97-4.738-11.43V95.823h-8.943V82.408h40.246v-7.91
	h53.661v7.91h40.246v13.415h-8.943v113.513c0,4.518-1.565,8.342-4.695,11.472c-3.13,3.13-6.954,4.695-11.472,4.695H108.035z
	 M194.717,95.823h-89.435v113.513c0,0.803,0.258,1.463,0.774,1.979c0.516,0.516,1.175,0.774,1.979,0.774h83.93
	c0.689,0,1.319-0.287,1.892-0.861c0.574-0.572,0.861-1.203,0.861-1.892V95.823z M126.783,194.201h13.413V113.71h-13.413V194.201z
	 M159.804,194.201h13.413V113.71h-13.413V194.201z M105.283,95.823v116.265V95.823z"/>
<g>
</g>
<g>
</g>
<g>
</g>
<g>
</g>
<g>
</g>
<g>
</g>
</svg>
