<?xml version="1.0" encoding="iso-8859-1"?>
<!-- Generator: Adobe Illustrator 19.0.0, SVG Export Plug-In . SVG Version: 6.00 Build 0)  -->
<svg version="1.1" id="Capa_1" xmlns="http://www.w3.org/2000/svg" xmlns:xlink="http://www.w3.org/1999/xlink" x="0px" y="0px"
	 viewBox="0 0 511 511" style="enable-background:new 0 0 511 511;" xml:space="preserve">
<g>
	<path d="M511,48h-56V16h-47v32h-41V16h-47v32h-41V16h-47v32h-41V16h-47v32h-41V16H56v32H0v95h16v352h367.5h7.5h3.606L495,394.606
		V391v-7.5V143h16V48z M423,31h17v49h-17V31z M335,31h17v49h-17V31z M247,31h17v49h-17V31z M159,31h17v49h-17V31z M71,31h17v49H71
		V31z M391,477.394V391h86.393L391,477.394z M480,376H376v104H31V143h449V376z M496,128h-1H16h-1V63h41v32h47V63h41v32h47V63h41v32
		h47V63h41v32h47V63h41v32h47V63h41V128z"/>
	<rect x="231.5" y="184" width="48" height="15"/>
	<rect x="151.5" y="184" width="48" height="15"/>
	<rect x="71.5" y="184" width="48" height="15"/>
	<rect x="391.5" y="184" width="48" height="15"/>
	<rect x="311.5" y="184" width="48" height="15"/>
	<rect x="231.5" y="232" width="48" height="15"/>
	<rect x="151.5" y="232" width="48" height="15"/>
	<rect x="71.5" y="232" width="48" height="15"/>
	<rect x="391.5" y="232" width="48" height="15"/>
	<rect x="311.5" y="232" width="48" height="15"/>
	<rect x="231.5" y="280" width="48" height="15"/>
	<rect x="151.5" y="280" width="48" height="15"/>
	<rect x="71.5" y="280" width="48" height="15"/>
	<rect x="391.5" y="280" width="48" height="15"/>
	<rect x="311.5" y="280" width="48" height="15"/>
	<rect x="231.5" y="328" width="48" height="15"/>
	<rect x="151.5" y="328" width="48" height="15"/>
	<rect x="71.5" y="328" width="48" height="15"/>
	<rect x="391.5" y="328" width="48" height="15"/>
	<rect x="311.5" y="328" width="48" height="15"/>
	<rect x="231.5" y="376" width="48" height="15"/>
	<rect x="151.5" y="376" width="48" height="15"/>
	<rect x="71.5" y="376" width="48" height="15"/>
	<rect x="311.5" y="376" width="48" height="15"/>
	<rect x="231.5" y="424" width="48" height="15"/>
	<rect x="151.5" y="424" width="48" height="15"/>
	<rect x="71.5" y="424" width="48" height="15"/>
	<rect x="311.5" y="424" width="48" height="15"/>
</g>
<g>
</g>
<g>
</g>
<g>
</g>
<g>
</g>
<g>
</g>
<g>
</g>
<g>
</g>
<g>
</g>
<g>
</g>
<g>
</g>
<g>
</g>
<g>
</g>
<g>
</g>
<g>
</g>
<g>
</g>
</svg>
