<?xml version="1.0" encoding="iso-8859-1"?>
<!-- Generator: Adobe Illustrator 28.5.0, SVG Export Plug-In . SVG Version: 9.03 Build 54727)  -->
<svg version="1.1" id="Layer_1" xmlns="http://www.w3.org/2000/svg" xmlns:xlink="http://www.w3.org/1999/xlink" x="0px" y="0px"
	 viewBox="0 0 300 300" style="enable-background:new 0 0 300 300;" xml:space="preserve">
<path d="M38.227,195.496v-8.804c0-6.262,3.346-11.458,10.038-15.589c6.694-4.129,15.308-6.194,25.844-6.194
	c1.555,0,3.221,0.075,4.998,0.224c1.779,0.151,3.669,0.397,5.669,0.737c-1.596,2.783-2.76,5.639-3.492,8.567
	c-0.731,2.928-1.096,5.863-1.096,8.804v12.255L38.227,195.496z M99.402,195.496v-11.47c0-4.109,1.193-7.865,3.579-11.269
	c2.386-3.402,5.905-6.345,10.558-8.83c4.654-2.483,10.076-4.345,16.265-5.587c6.189-1.242,13.022-1.863,20.499-1.863
	c7.621,0,14.526,0.621,20.715,1.863c6.189,1.242,11.61,3.105,16.265,5.587c4.653,2.484,8.163,5.428,10.53,8.83
	c2.365,3.404,3.548,7.16,3.548,11.269v11.47H99.402z M220.574,195.496v-12.197c0-3.252-0.356-6.317-1.068-9.194
	c-0.712-2.877-1.78-5.622-3.204-8.236c2.129-0.34,4.041-0.585,5.735-0.737c1.693-0.15,3.297-0.224,4.812-0.224
	c10.536,0,19.117,2.055,25.744,6.166s9.941,9.316,9.941,15.617v8.804H220.574z M109.891,185.3h81.039v-2.156
	c-0.393-4.838-4.357-8.792-11.893-11.863c-7.535-3.072-17.086-4.608-28.655-4.608s-21.121,1.536-28.655,4.608
	c-7.536,3.071-11.481,7.025-11.835,11.863L109.891,185.3z M74.055,155.299c-4.004,0-7.414-1.421-10.231-4.262
	c-2.816-2.841-4.224-6.257-4.224-10.247c0-3.947,1.421-7.32,4.262-10.117c2.841-2.797,6.257-4.196,10.247-4.196
	c3.947,0,7.353,1.399,10.216,4.196c2.862,2.797,4.292,6.189,4.292,10.175c0,3.869-1.395,7.245-4.185,10.127
	C81.64,153.858,78.181,155.299,74.055,155.299z M226.849,155.299c-3.908,0-7.304-1.441-10.186-4.323
	c-2.882-2.882-4.323-6.258-4.323-10.127c0-3.987,1.441-7.378,4.323-10.175c2.882-2.797,6.29-4.196,10.224-4.196
	c4.053,0,7.478,1.399,10.275,4.196c2.797,2.797,4.196,6.169,4.196,10.117c0,3.99-1.39,7.406-4.17,10.247
	C234.406,153.878,230.96,155.299,226.849,155.299z M150.45,148.829c-6.189,0-11.473-2.173-15.852-6.52
	c-4.379-4.345-6.569-9.622-6.569-15.832c0-6.333,2.173-11.642,6.518-15.926c4.347-4.286,9.625-6.428,15.834-6.428
	c6.333,0,11.642,2.136,15.926,6.408c4.284,4.27,6.426,9.563,6.426,15.877c0,6.189-2.135,11.473-6.406,15.852
	C162.057,146.64,156.764,148.829,150.45,148.829z M150.478,138.634c3.348,0,6.194-1.206,8.539-3.617
	c2.347-2.413,3.52-5.292,3.52-8.638c0-3.346-1.165-6.192-3.495-8.539c-2.33-2.347-5.217-3.52-8.661-3.52
	c-3.281,0-6.128,1.166-8.539,3.497c-2.411,2.33-3.617,5.217-3.617,8.661c0,3.28,1.206,6.126,3.617,8.539
	C144.253,137.428,147.132,138.634,150.478,138.634z"/>
<g>
</g>
<g>
</g>
<g>
</g>
<g>
</g>
<g>
</g>
<g>
</g>
</svg>
